<svg xmlns="http://www.w3.org/2000/svg" version="1.1" xmlns:xlink="http://www.w3.org/1999/xlink" xmlns:svgjs="http://svgjs.dev/svgjs" width="1000" height="623" viewBox="0 0 1000 623"><g transform="matrix(1,0,0,1,-0.6060606060606233,0.2522267206477409)"><svg viewBox="0 0 396 247" data-background-color="#ffffff" preserveAspectRatio="xMidYMid meet" height="623" width="1000" xmlns="http://www.w3.org/2000/svg" xmlns:xlink="http://www.w3.org/1999/xlink"><g id="tight-bounds" transform="matrix(1,0,0,1,0.2400000000000091,-0.09999999999999432)"><svg viewBox="0 0 395.52 247.2" height="247.2" width="395.52"><g><svg></svg></g><g><svg viewBox="0 0 395.52 247.2" height="247.2" width="395.52"><g transform="matrix(1,0,0,1,39.55199999999999,71.48300214723304)"><svg viewBox="0 0 316.416 104.2339957055339" height="104.2339957055339" width="316.416"><g><svg viewBox="0 0 316.416 104.2339957055339" height="104.2339957055339" width="316.416"><g><svg viewBox="0 0 316.416 104.2339957055339" height="104.2339957055339" width="316.416"><g><svg viewBox="0 0 316.416 104.2339957055339" height="104.2339957055339" width="316.416"><g id="textblocktransform"><svg viewBox="0 0 316.416 104.2339957055339" height="104.2339957055339" width="316.416" id="textblock"><g><svg viewBox="0 0 316.416 55.716581435118684" height="55.716581435118684" width="316.416"><g transform="matrix(1,0,0,1,0,0)"><svg width="316.416" viewBox="-0.8399999141693115 -40.36000061035156 250.1699981689453 44.869998931884766" height="55.716581435118684" data-palette-color="#729343"><path d="M3.16 0L3.16-36.36 12.64-36.36 22.66-11.93 23.08-11.93 33.1-36.36 42.58-36.36 42.58 0 35.12 0 35.12-23.67 34.82-23.67 25.41-0.18 20.33-0.18 10.92-23.76 10.62-23.76 10.62 0 3.16 0ZM73.47 0L48.9 0 48.9-36.36 73.4-36.36 73.4-30.02 56.58-30.02 56.58-21.36 72.14-21.36 72.14-15.02 56.58-15.02 56.58-6.34 73.47-6.34 73.47 0ZM101.98-13.41L101.98-36.36 109.67-36.36 109.67-12.75Q109.67-8.77 107.78-5.79 105.89-2.81 102.5-1.15 99.11 0.51 94.6 0.51L94.6 0.51Q90.07 0.51 86.68-1.15 83.29-2.81 81.4-5.79 79.52-8.77 79.52-12.75L79.52-12.75 79.52-36.36 87.21-36.36 87.21-13.41Q87.21-11.33 88.13-9.71 89.04-8.1 90.71-7.17 92.38-6.25 94.6-6.25L94.6-6.25Q96.83-6.25 98.49-7.17 100.15-8.1 101.07-9.71 101.98-11.33 101.98-13.41L101.98-13.41ZM137.33-30.02L126.2-30.02 126.2-36.36 156.06-36.36 156.06-30.02 144.93-30.02 144.93 0 137.33 0 137.33-30.02ZM161-36.36L168.68-36.36 168.68 0 161 0 161-36.36ZM175.02 0L175.02-36.36 184.5-36.36 194.52-11.93 194.94-11.93 204.96-36.36 214.44-36.36 214.44 0 206.98 0 206.98-23.67 206.68-23.67 197.27-0.18 192.19-0.18 182.78-23.76 182.48-23.76 182.48 0 175.02 0ZM245.33 0L220.76 0 220.76-36.36 245.26-36.36 245.26-30.02 228.44-30.02 228.44-21.36 244-21.36 244-15.02 228.44-15.02 228.44-6.34 245.33-6.34 245.33 0Z" opacity="1" transform="matrix(1,0,0,1,0,0)" fill="#729343" class="undefined-text-0" data-fill-palette-color="primary" id="text-0"></path></svg></g></svg></g><g transform="matrix(1,0,0,1,3.5,66.77155915036596)"><svg viewBox="0 0 309.416 37.46243655516793" height="37.46243655516793" width="309.416"><g transform="matrix(1,0,0,1,0,0)"><svg width="309.416" viewBox="-2.450000047683716 -44.45000076293945 487.4800109863281 59.900001525878906" height="37.46243655516793" data-palette-color="#729343"><path d="M11.7 0.65C18.1 0.65 21.6-3 21.6-7.4 21.6-12.55 17.25-14.15 13.3-15.65 10.25-16.8 7.45-17.75 7.45-20.35 7.45-22.45 9.05-24.25 12.5-24.25 14.9-24.25 16.8-23.25 18.65-21.85L20.85-24.8C18.75-26.45 15.8-27.85 12.45-27.85 6.55-27.85 3.05-24.45 3.05-20.15 3.05-15.55 7.2-13.7 11-12.3 14-11.15 17.2-9.95 17.2-7.15 17.2-4.8 15.45-2.9 11.85-2.9 8.6-2.9 6.15-4.2 3.8-6.1L1.55-3.1C4.15-0.95 7.85 0.65 11.7 0.65ZM38.99 0.65C42.69 0.65 45.59-0.6 47.99-2.15L46.34-5.15C44.34-3.8 42.19-3 39.54-3 34.39-3 30.84-6.7 30.54-12.5L48.84-12.5C48.94-13.15 49.04-14.1 49.04-15.1 49.04-22.85 45.14-27.85 38.24-27.85 31.94-27.85 25.99-22.35 25.99-13.55 25.99-4.6 31.79 0.65 38.99 0.65ZM30.49-15.8C31.04-21.1 34.44-24.2 38.29-24.2 42.54-24.2 45.04-21.25 45.04-15.8ZM63.68 0.65C67.43 0.65 70.13-1.3 72.68-4.25L72.83-4.25 73.18 0 76.98 0 76.98-27.15 72.43-27.15 72.43-7.9C69.83-4.65 67.88-3.3 65.08-3.3 61.48-3.3 59.98-5.45 59.98-10.5L59.98-27.15 55.43-27.15 55.43-9.95C55.43-3.05 57.98 0.65 63.68 0.65ZM97.42 11.45L101.97 11.45 101.97 2.25 101.87-2.5C104.32-0.5 106.92 0.65 109.37 0.65 115.62 0.65 121.17-4.7 121.17-14 121.17-22.35 117.37-27.85 110.37-27.85 107.22-27.85 104.17-26.05 101.72-24.05L101.57-24.05 101.17-27.15 97.42-27.15ZM108.62-3.15C106.82-3.15 104.42-3.9 101.97-6L101.97-20.25C104.62-22.7 106.97-24 109.27-24 114.42-24 116.42-19.95 116.42-13.95 116.42-7.2 113.12-3.15 108.62-3.15ZM139.01 0.65C145.66 0.65 151.61-4.55 151.61-13.55 151.61-22.6 145.66-27.85 139.01-27.85 132.36-27.85 126.41-22.6 126.41-13.55 126.41-4.55 132.36 0.65 139.01 0.65ZM139.01-3.15C134.31-3.15 131.16-7.3 131.16-13.55 131.16-19.8 134.31-24.05 139.01-24.05 143.71-24.05 146.91-19.8 146.91-13.55 146.91-7.3 143.71-3.15 139.01-3.15ZM158.8 0L163.35 0 163.35-17.45C165.15-22.1 167.95-23.7 170.2-23.7 171.3-23.7 171.95-23.6 172.85-23.25L173.7-27.25C172.85-27.7 172-27.85 170.8-27.85 167.75-27.85 165-25.65 163.1-22.2L162.95-22.2 162.55-27.15 158.8-27.15ZM186.79 0.65C188.44 0.65 190.24 0.15 191.79-0.35L190.89-3.75C189.99-3.4 188.74-3.05 187.79-3.05 184.64-3.05 183.59-4.95 183.59-8.3L183.59-23.45 190.94-23.45 190.94-27.15 183.59-27.15 183.59-34.8 179.79-34.8 179.24-27.15 174.99-26.9 174.99-23.45 179.04-23.45 179.04-8.4C179.04-3 180.99 0.65 186.79 0.65ZM202.18 0.65C205.53 0.65 208.58-1.1 211.18-3.25L211.33-3.25 211.73 0 215.48 0 215.48-16.7C215.48-23.4 212.68-27.85 206.08-27.85 201.73-27.85 197.88-25.9 195.38-24.3L197.18-21.15C199.33-22.6 202.18-24.05 205.33-24.05 209.78-24.05 210.93-20.7 210.93-17.2 199.38-15.9 194.23-12.95 194.23-7.05 194.23-2.15 197.63 0.65 202.18 0.65ZM203.48-3C200.78-3 198.68-4.25 198.68-7.35 198.68-10.85 201.78-13.1 210.93-14.2L210.93-6.6C208.28-4.25 206.13-3 203.48-3ZM228.97 0.65C230.22 0.65 230.97 0.5 231.62 0.25L230.97-3.25C230.47-3.15 230.27-3.15 230.02-3.15 229.32-3.15 228.72-3.7 228.72-5.1L228.72-39.8 224.17-39.8 224.17-5.4C224.17-1.55 225.57 0.65 228.97 0.65ZM258.96 0.65C262.21 0.65 265.06-1.1 267.21-3.2L267.36-3.2 267.76 0 271.46 0 271.46-39.8 266.96-39.8 266.96-29.35 267.16-24.65C264.76-26.65 262.71-27.85 259.51-27.85 253.31-27.85 247.76-22.35 247.76-13.55 247.76-4.5 252.16 0.65 258.96 0.65ZM259.96-3.15C255.16-3.15 252.46-7.05 252.46-13.6 252.46-19.8 255.91-24 260.31-24 262.56-24 264.61-23.2 266.96-21.15L266.96-6.9C264.66-4.4 262.46-3.15 259.96-3.15ZM291.7 0.65C295.4 0.65 298.3-0.6 300.7-2.15L299.05-5.15C297.05-3.8 294.9-3 292.25-3 287.1-3 283.55-6.7 283.25-12.5L301.55-12.5C301.65-13.15 301.75-14.1 301.75-15.1 301.75-22.85 297.85-27.85 290.95-27.85 284.65-27.85 278.7-22.35 278.7-13.55 278.7-4.6 284.5 0.65 291.7 0.65ZM283.2-15.8C283.75-21.1 287.15-24.2 291-24.2 295.25-24.2 297.75-21.25 297.75-15.8ZM320.48 0L325.03 0 325.03-23.45 330.78-23.45 330.78-27.15 325.03-27.15 325.03-31.45C325.03-34.95 326.28-36.8 328.88-36.8 329.83-36.8 330.93-36.55 331.93-36.1L332.93-39.55C331.68-40.1 330.03-40.45 328.38-40.45 322.98-40.45 320.48-37 320.48-31.5L320.48-27.15 316.78-26.9 316.78-23.45 320.48-23.45ZM343.92 0.65C347.67 0.65 350.37-1.3 352.92-4.25L353.07-4.25 353.42 0 357.22 0 357.22-27.15 352.67-27.15 352.67-7.9C350.07-4.65 348.12-3.3 345.32-3.3 341.72-3.3 340.22-5.45 340.22-10.5L340.22-27.15 335.67-27.15 335.67-9.95C335.67-3.05 338.22 0.65 343.92 0.65ZM374.97 0.65C376.62 0.65 378.42 0.15 379.97-0.35L379.07-3.75C378.17-3.4 376.92-3.05 375.97-3.05 372.82-3.05 371.77-4.95 371.77-8.3L371.77-23.45 379.12-23.45 379.12-27.15 371.77-27.15 371.77-34.8 367.97-34.8 367.42-27.15 363.17-26.9 363.17-23.45 367.22-23.45 367.22-8.4C367.22-3 369.17 0.65 374.97 0.65ZM395.51 0.65C399.21 0.65 402.11-0.6 404.51-2.15L402.86-5.15C400.86-3.8 398.71-3 396.06-3 390.91-3 387.36-6.7 387.06-12.5L405.36-12.5C405.46-13.15 405.56-14.1 405.56-15.1 405.56-22.85 401.66-27.85 394.76-27.85 388.46-27.85 382.51-22.35 382.51-13.55 382.51-4.6 388.31 0.65 395.51 0.65ZM387.01-15.8C387.56-21.1 390.96-24.2 394.81-24.2 399.06-24.2 401.56-21.25 401.56-15.8ZM424.25 0.65C430.5 0.65 436.05-4.7 436.05-14.05 436.05-22.35 432.25-27.85 425.2-27.85 422.2-27.85 419.15-26.15 416.7-24L416.85-28.9 416.85-39.8 412.3-39.8 412.3 0 415.95 0 416.35-2.8 416.55-2.8C418.9-0.65 421.75 0.65 424.25 0.65ZM423.5-3.15C421.7-3.15 419.25-3.9 416.85-6L416.85-20.25C419.45-22.7 421.85-24 424.15-24 429.3-24 431.3-19.95 431.3-13.95 431.3-7.2 428-3.15 423.5-3.15ZM453.79 0.65C460.44 0.65 466.39-4.55 466.39-13.55 466.39-22.6 460.44-27.85 453.79-27.85 447.14-27.85 441.19-22.6 441.19-13.55 441.19-4.55 447.14 0.65 453.79 0.65ZM453.79-3.15C449.09-3.15 445.94-7.3 445.94-13.55 445.94-19.8 449.09-24.05 453.79-24.05 458.49-24.05 461.69-19.8 461.69-13.55 461.69-7.3 458.49-3.15 453.79-3.15ZM478.38 0.65C479.63 0.65 480.38 0.5 481.03 0.25L480.38-3.25C479.88-3.15 479.68-3.15 479.43-3.15 478.73-3.15 478.13-3.7 478.13-5.1L478.13-39.8 473.58-39.8 473.58-5.4C473.58-1.55 474.98 0.65 478.38 0.65Z" opacity="1" transform="matrix(1,0,0,1,0,0)" fill="#729343" class="undefined-text-1" data-fill-palette-color="secondary" id="text-1"></path></svg></g></svg></g></svg></g></svg></g><g></g></svg></g></svg></g></svg></g><g mask="url(&quot;#9966ff9a-7e6d-47d1-8fdc-110321f5c9a2&quot;)"><g transform="matrix(1.305051223665166, 0, 0, 1.305051223665166, 107.29554222141442, 1)"><svg xmlns="http://www.w3.org/2000/svg" xmlns:xlink="http://www.w3.org/1999/xlink" version="1.1" x="0" y="0" viewBox="26.777597427368164 6.058000564575195 138.6374053955078 187.88534545898438" enable-background="new 0 0 200 200" xml:space="preserve" height="187.88534545898438" width="138.6374053955078" class="icon-none" data-fill-palette-color="accent" id="none"><path d="M124.874 39.053c9.107 0 16.479-7.399 16.479-16.506s-7.371-16.489-16.479-16.489-16.509 7.38-16.509 16.486C108.365 31.653 115.765 39.053 124.874 39.053z" fill="#729343" data-fill-palette-color="accent"></path><path d="M162.663 73.26l-7.748-6.995-20.871-20.864c-1.949-1.874-4.578-3.056-7.529-3.056l-31.347-0.063-57.806-0.941c-2.279-0.317-4.66 0.311-6.543 1.927-3.476 2.985-3.881 8.212-0.884 11.703 1.682 1.959 4.069 2.959 6.477 2.882l39.198 0.169 21.061 0.026L65.403 95.192l-0.097-0.035L48.345 115.09c-0.589 0.654-1.118 1.383-1.542 2.207-2.756 5.196-1.865 11.736 3.362 14.465 4.553 2.414 11.148 1.014 14.296-2.826l21.357-25.416 1.312-1.643 2.375 1.688-0.83 0.947-58.89 71.346c-0.632 0.619-1.161 1.356-1.618 2.163-2.905 5.127-1.108 11.632 4.023 14.539 4.469 2.532 10.019 1.479 13.288-2.267l67.56-79.342 0.05 0.014 27.942-34.485 4.634 3.757-19.057 23.849c-1.182 1.547-1.841 3.505-1.739 5.6 0.229 4.74 4.259 8.373 8.977 8.145 2.071-0.1 3.908-0.896 5.326-2.184l22.784-28.368C169.303 79.172 162.663 73.26 162.663 73.26z" fill="#729343" data-fill-palette-color="accent"></path></svg></g></g><mask id="9966ff9a-7e6d-47d1-8fdc-110321f5c9a2"><rect width="640" height="400" fill="white"></rect><g transform="matrix(1,0,0,1,39.55199999999999,71.48300214723304)"><svg viewBox="0 0 316.416 104.2339957055339" height="104.2339957055339" width="316.416"><g><svg viewBox="0 0 316.416 104.2339957055339" height="104.2339957055339" width="316.416"><g><svg viewBox="0 0 316.416 104.2339957055339" height="104.2339957055339" width="316.416"><g><svg viewBox="0 0 316.416 104.2339957055339" height="104.2339957055339" width="316.416"><g id="SvgjsG1147"><svg viewBox="0 0 316.416 104.2339957055339" height="104.2339957055339" width="316.416" id="SvgjsSvg1146"><g><svg viewBox="0 0 316.416 55.716581435118684" height="55.716581435118684" width="316.416"><g transform="matrix(1,0,0,1,0,0)"><svg width="316.416" viewBox="-0.8399999141693115 -40.36000061035156 250.1699981689453 44.869998931884766" height="55.716581435118684" data-palette-color="#729343"><path d="M3.16 0L3.16-36.36 12.64-36.36 22.66-11.93 23.08-11.93 33.1-36.36 42.58-36.36 42.58 0 35.12 0 35.12-23.67 34.82-23.67 25.41-0.18 20.33-0.18 10.92-23.76 10.62-23.76 10.62 0 3.16 0ZM73.47 0L48.9 0 48.9-36.36 73.4-36.36 73.4-30.02 56.58-30.02 56.58-21.36 72.14-21.36 72.14-15.02 56.58-15.02 56.58-6.34 73.47-6.34 73.47 0ZM101.98-13.41L101.98-36.36 109.67-36.36 109.67-12.75Q109.67-8.77 107.78-5.79 105.89-2.81 102.5-1.15 99.11 0.51 94.6 0.51L94.6 0.51Q90.07 0.51 86.68-1.15 83.29-2.81 81.4-5.79 79.52-8.77 79.52-12.75L79.52-12.75 79.52-36.36 87.21-36.36 87.21-13.41Q87.21-11.33 88.13-9.71 89.04-8.1 90.71-7.17 92.38-6.25 94.6-6.25L94.6-6.25Q96.83-6.25 98.49-7.17 100.15-8.1 101.07-9.71 101.98-11.33 101.98-13.41L101.98-13.41ZM137.33-30.02L126.2-30.02 126.2-36.36 156.06-36.36 156.06-30.02 144.93-30.02 144.93 0 137.33 0 137.33-30.02ZM161-36.36L168.68-36.36 168.68 0 161 0 161-36.36ZM175.02 0L175.02-36.36 184.5-36.36 194.52-11.93 194.94-11.93 204.96-36.36 214.44-36.36 214.44 0 206.98 0 206.98-23.67 206.68-23.67 197.27-0.18 192.19-0.18 182.78-23.76 182.48-23.76 182.48 0 175.02 0ZM245.33 0L220.76 0 220.76-36.36 245.26-36.36 245.26-30.02 228.44-30.02 228.44-21.36 244-21.36 244-15.02 228.44-15.02 228.44-6.34 245.33-6.34 245.33 0Z" opacity="1" transform="matrix(1,0,0,1,0,0)" fill="#729343" class="undefined-text-0" data-fill-palette-color="primary" id="SvgjsPath1145" stroke-width="7" stroke="black" stroke-linejoin="round"></path></svg></g></svg></g><g transform="matrix(1,0,0,1,3.5,66.77155915036596)"><svg viewBox="0 0 309.416 37.46243655516793" height="37.46243655516793" width="309.416"><g transform="matrix(1,0,0,1,0,0)"><svg width="309.416" viewBox="-2.450000047683716 -44.45000076293945 487.4800109863281 59.900001525878906" height="37.46243655516793" data-palette-color="#729343"><path d="M11.7 0.65C18.1 0.65 21.6-3 21.6-7.4 21.6-12.55 17.25-14.15 13.3-15.65 10.25-16.8 7.45-17.75 7.45-20.35 7.45-22.45 9.05-24.25 12.5-24.25 14.9-24.25 16.8-23.25 18.65-21.85L20.85-24.8C18.75-26.45 15.8-27.85 12.45-27.85 6.55-27.85 3.05-24.45 3.05-20.15 3.05-15.55 7.2-13.7 11-12.3 14-11.15 17.2-9.95 17.2-7.15 17.2-4.8 15.45-2.9 11.85-2.9 8.6-2.9 6.15-4.2 3.8-6.1L1.55-3.1C4.15-0.95 7.85 0.65 11.7 0.65ZM38.99 0.65C42.69 0.65 45.59-0.6 47.99-2.15L46.34-5.15C44.34-3.8 42.19-3 39.54-3 34.39-3 30.84-6.7 30.54-12.5L48.84-12.5C48.94-13.15 49.04-14.1 49.04-15.1 49.04-22.85 45.14-27.85 38.24-27.85 31.94-27.85 25.99-22.35 25.99-13.55 25.99-4.6 31.79 0.65 38.99 0.65ZM30.49-15.8C31.04-21.1 34.44-24.2 38.29-24.2 42.54-24.2 45.04-21.25 45.04-15.8ZM63.68 0.65C67.43 0.65 70.13-1.3 72.68-4.25L72.83-4.25 73.18 0 76.98 0 76.98-27.15 72.43-27.15 72.43-7.9C69.83-4.65 67.88-3.3 65.08-3.3 61.48-3.3 59.98-5.45 59.98-10.5L59.98-27.15 55.43-27.15 55.43-9.95C55.43-3.05 57.98 0.65 63.68 0.65ZM97.42 11.45L101.97 11.45 101.97 2.25 101.87-2.5C104.32-0.5 106.92 0.65 109.37 0.65 115.62 0.65 121.17-4.7 121.17-14 121.17-22.35 117.37-27.85 110.37-27.85 107.22-27.85 104.17-26.05 101.72-24.05L101.57-24.05 101.17-27.15 97.42-27.15ZM108.62-3.15C106.82-3.15 104.42-3.9 101.97-6L101.97-20.25C104.62-22.7 106.97-24 109.27-24 114.42-24 116.42-19.95 116.42-13.95 116.42-7.2 113.12-3.15 108.62-3.15ZM139.01 0.65C145.66 0.65 151.61-4.55 151.61-13.55 151.61-22.6 145.66-27.85 139.01-27.85 132.36-27.85 126.41-22.6 126.41-13.55 126.41-4.55 132.36 0.65 139.01 0.65ZM139.01-3.15C134.31-3.15 131.16-7.3 131.16-13.55 131.16-19.8 134.31-24.05 139.01-24.05 143.71-24.05 146.91-19.8 146.91-13.55 146.91-7.3 143.71-3.15 139.01-3.15ZM158.8 0L163.35 0 163.35-17.45C165.15-22.1 167.95-23.7 170.2-23.7 171.3-23.7 171.95-23.6 172.85-23.25L173.7-27.25C172.85-27.7 172-27.85 170.8-27.85 167.75-27.85 165-25.65 163.1-22.2L162.95-22.2 162.55-27.15 158.8-27.15ZM186.79 0.65C188.44 0.65 190.24 0.15 191.79-0.35L190.89-3.75C189.99-3.4 188.74-3.05 187.79-3.05 184.64-3.05 183.59-4.95 183.59-8.3L183.59-23.45 190.94-23.45 190.94-27.15 183.59-27.15 183.59-34.8 179.79-34.8 179.24-27.15 174.99-26.9 174.99-23.45 179.04-23.45 179.04-8.4C179.04-3 180.99 0.65 186.79 0.65ZM202.18 0.65C205.53 0.65 208.58-1.1 211.18-3.25L211.33-3.25 211.73 0 215.48 0 215.48-16.7C215.48-23.4 212.68-27.85 206.08-27.85 201.73-27.85 197.88-25.9 195.38-24.3L197.18-21.15C199.33-22.6 202.18-24.05 205.33-24.05 209.78-24.05 210.93-20.7 210.93-17.2 199.38-15.9 194.23-12.95 194.23-7.05 194.23-2.15 197.63 0.65 202.18 0.65ZM203.48-3C200.78-3 198.68-4.25 198.68-7.35 198.68-10.85 201.78-13.1 210.93-14.2L210.93-6.6C208.28-4.25 206.13-3 203.48-3ZM228.97 0.65C230.22 0.65 230.97 0.5 231.62 0.25L230.97-3.25C230.47-3.15 230.27-3.15 230.02-3.15 229.32-3.15 228.72-3.7 228.72-5.1L228.72-39.8 224.17-39.8 224.17-5.4C224.17-1.55 225.57 0.65 228.97 0.65ZM258.96 0.65C262.21 0.65 265.06-1.1 267.21-3.2L267.36-3.2 267.76 0 271.46 0 271.46-39.8 266.96-39.8 266.96-29.35 267.16-24.65C264.76-26.65 262.71-27.85 259.51-27.85 253.31-27.85 247.76-22.35 247.76-13.55 247.76-4.5 252.16 0.65 258.96 0.65ZM259.96-3.15C255.16-3.15 252.46-7.05 252.46-13.6 252.46-19.8 255.91-24 260.31-24 262.56-24 264.61-23.2 266.96-21.15L266.96-6.9C264.66-4.4 262.46-3.15 259.96-3.15ZM291.7 0.65C295.4 0.65 298.3-0.6 300.7-2.15L299.05-5.15C297.05-3.8 294.9-3 292.25-3 287.1-3 283.55-6.7 283.25-12.5L301.55-12.5C301.65-13.15 301.75-14.1 301.75-15.1 301.75-22.85 297.85-27.85 290.95-27.85 284.65-27.85 278.7-22.35 278.7-13.55 278.7-4.6 284.5 0.65 291.7 0.65ZM283.2-15.8C283.75-21.1 287.15-24.2 291-24.2 295.25-24.2 297.75-21.25 297.75-15.8ZM320.48 0L325.03 0 325.03-23.45 330.78-23.45 330.78-27.15 325.03-27.15 325.03-31.45C325.03-34.95 326.28-36.8 328.88-36.8 329.83-36.8 330.93-36.55 331.93-36.1L332.93-39.55C331.68-40.1 330.03-40.45 328.38-40.45 322.98-40.45 320.48-37 320.48-31.5L320.48-27.15 316.78-26.9 316.78-23.45 320.48-23.45ZM343.92 0.65C347.67 0.65 350.37-1.3 352.92-4.25L353.07-4.25 353.42 0 357.22 0 357.22-27.15 352.67-27.15 352.67-7.9C350.07-4.65 348.12-3.3 345.32-3.3 341.72-3.3 340.22-5.45 340.22-10.5L340.22-27.15 335.67-27.15 335.67-9.95C335.67-3.05 338.22 0.65 343.92 0.65ZM374.97 0.65C376.62 0.65 378.42 0.15 379.97-0.35L379.07-3.75C378.17-3.4 376.92-3.05 375.97-3.05 372.82-3.05 371.77-4.95 371.77-8.3L371.77-23.45 379.12-23.45 379.12-27.15 371.77-27.15 371.77-34.8 367.97-34.8 367.42-27.15 363.17-26.9 363.17-23.45 367.22-23.45 367.22-8.4C367.22-3 369.17 0.65 374.97 0.65ZM395.51 0.65C399.21 0.65 402.11-0.6 404.51-2.15L402.86-5.15C400.86-3.8 398.71-3 396.06-3 390.91-3 387.36-6.7 387.06-12.5L405.36-12.5C405.46-13.15 405.56-14.1 405.56-15.1 405.56-22.85 401.66-27.85 394.76-27.85 388.46-27.85 382.51-22.35 382.51-13.55 382.51-4.6 388.31 0.65 395.51 0.65ZM387.01-15.8C387.56-21.1 390.96-24.2 394.81-24.2 399.06-24.2 401.56-21.25 401.56-15.8ZM424.25 0.65C430.5 0.65 436.05-4.7 436.05-14.05 436.05-22.35 432.25-27.85 425.2-27.85 422.2-27.85 419.15-26.15 416.7-24L416.85-28.9 416.85-39.8 412.3-39.8 412.3 0 415.95 0 416.35-2.8 416.55-2.8C418.9-0.65 421.75 0.65 424.25 0.65ZM423.5-3.15C421.7-3.15 419.25-3.9 416.85-6L416.85-20.25C419.45-22.7 421.85-24 424.15-24 429.3-24 431.3-19.95 431.3-13.95 431.3-7.2 428-3.15 423.5-3.15ZM453.79 0.65C460.44 0.65 466.39-4.55 466.39-13.55 466.39-22.6 460.44-27.85 453.79-27.85 447.14-27.85 441.19-22.6 441.19-13.55 441.19-4.55 447.14 0.65 453.79 0.65ZM453.79-3.15C449.09-3.15 445.94-7.3 445.94-13.55 445.94-19.8 449.09-24.05 453.79-24.05 458.49-24.05 461.69-19.8 461.69-13.55 461.69-7.3 458.49-3.15 453.79-3.15ZM478.38 0.65C479.63 0.65 480.38 0.5 481.03 0.25L480.38-3.25C479.88-3.15 479.68-3.15 479.43-3.15 478.73-3.15 478.13-3.7 478.13-5.1L478.13-39.8 473.58-39.8 473.58-5.4C473.58-1.55 474.98 0.65 478.38 0.65Z" opacity="1" transform="matrix(1,0,0,1,0,0)" fill="#729343" class="undefined-text-1" data-fill-palette-color="secondary" id="SvgjsPath1144" stroke-width="7" stroke="black" stroke-linejoin="round"></path></svg></g></svg></g></svg></g></svg></g><g></g></svg></g></svg></g></svg></g></mask></svg></g><defs></defs></svg><rect width="395.52" height="247.2" fill="none" stroke="none" visibility="hidden"></rect></g></svg></g></svg>